{"title":"Elysium 2013 HDCAM XViD UNiQUE","uid":8925878,"size":1518621011,"categoryP":"video","categoryS":"movies","magnet":"?xt=urn:btih:989baa43ff94e8f90780b0a231dc98f9f63bf129&amp;dn=Elysium+2013+HDCAM+XViD+UNiQUE&amp;tr=udp%3A%2F%2Ftracker.openbittorrent.com%3A80&amp;tr=udp%3A%2F%2Fopen.demonii.com%3A1337&amp;tr=udp%3A%2F%2Ftracker.coppersurfer.tk%3A6969&amp;tr=udp%3A%2F%2Fexodus.desync.com%3A6969","seeders":2,"leechers":0,"uploader":"xxxlavalxxx","files":-1,"time":1379365399,"description":" &lt;a href=&quot;http://www.imdb.com/title/tt1535108/&quot; rel=&quot;nofollow&quot; target=&quot;_NEW&quot;&gt;http://www.imdb.com/title/tt1535108/&lt;/a&gt;\n\n\n\nSet in the year 2154, where the very wealthy live on a man-made space station while the rest of the population resides on a ruined Earth, a man takes on a mission that could bring equality to the polarized worlds. \n\n\n\nDirector:\n Neill Blomkamp \n\nWriter:\n Neill Blomkamp \n\nStars:\n Matt Damon, Jodie Foster, Sharlto Copley\n\nGenres:\n  Action |  Drama |  Sci-Fi |  Thriller \n\nCountry:\n USA \n\nLanguage:\n English \n\n\n\nFormat                                   : AVI\n Format/Info                              : Audio Video Interleave\n File size                                : 1.40 GiB\n Duration                                 : 1h 40mn\n Overall bit rate                         : 1 990 Kbps\n Writing application                      : VirtualDubMod 1.5.10.2 (build 2540/release)\n Writing library                          : VirtualDubMod build 2540/release\n\n Video\n ID                                       : 0\n Format                                   : MPEG-4 Visual\n Format profile                           : Advanced Simple@L5\n Format settings, BVOP                    : 2\n Format settings, QPel                    : No\n Format settings, GMC                     : No warppoints\n Format settings, Matrix                  : Default (H.263)\n Muxing mode                              : Packed bitstream\n Codec ID                                 : XVID\n Codec ID/Hint                            : XviD\n Duration                                 : 1h 40mn\n Bit rate                                 : 1 851 Kbps\n Width                                    : 720 pixels\n Height                                   : 288 pixels\n Display aspect ratio                     : 2.500\n Frame rate                               : 29.970 fps\n Color space                              : YUV\n Chroma subsampling                       : 4:2:0\n Bit depth                                : 8 bits\n Scan type                                : Progressive\n Compression mode                         : Lossy\n Bits/(Pixel*Frame)                       : 0.298\n Stream size                              : 1.30 GiB (93%)\n Writing library                          : XviD 64\n\n Audio\n ID                                       : 1\n Format                                   : MPEG Audio\n Format version                           : Version 1\n Format profile                           : Layer 3\n Codec ID                                 : 55\n Codec ID/Hint                            : MP3\n Duration                                 : 1h 40mn\n Bit rate mode                            : Constant\n Bit rate                                 : 128 Kbps\n Channel(s)                               : 2 channels\n Sampling rate                            : 48.0 KHz\n Compression mode                         : Lossy\n Stream size                              : 92.3 MiB (6%)\n Alignment                                : Aligned on interleaves\n Interleave, duration                     : 33 ms (1.00 video frame)\n Interleave, preload duration             : 504 ms\n Writing library                          : LAME3.98.4\n\n\nSource Used    SmY - Thanks\n\n\n\n &lt;a href=&quot;\nhttp://bayimg.com/AapPiaaeJ&quot; rel=&quot;nofollow&quot; target=&quot;_NEW&quot;&gt;\nhttp://bayimg.com/AapPiaaeJ&lt;/a&gt; &lt;a href=&quot;\nhttp://bayimg.com/AApPJAAEJ&quot; rel=&quot;nofollow&quot; target=&quot;_NEW&quot;&gt;\nhttp://bayimg.com/AApPJAAEJ&lt;/a&gt;","torrent":{"xt":"urn:btih:989baa43ff94e8f90780b0a231dc98f9f63bf129","amp;dn":"Elysium+2013+HDCAM+XViD+UNiQUE","amp;tr":["udp%3A%2F%2Ftracker.openbittorrent.com%3A80","udp%3A%2F%2Fopen.demonii.com%3A1337","udp%3A%2F%2Ftracker.coppersurfer.tk%3A6969","udp%3A%2F%2Fexodus.desync.com%3A6969"],"infoHash":"989baa43ff94e8f90780b0a231dc98f9f63bf129","infoHashBuffer":{"type":"Buffer","data":[152,155,170,67,255,148,232,249,7,128,176,162,49,220,152,249,246,59,241,41]},"announce":[],"urlList":[]}}